<mxfile host="app.diagrams.net" modified="2020-12-15T14:21:47.163Z" agent="5.0 (Windows NT 10.0; Win64; x64) AppleWebKit/537.36 (KHTML, like Gecko) Chrome/87.0.4280.88 Safari/537.36" etag="d5TYn49s_8BuSk_t3SgG" version="14.0.1" type="github">
  <diagram id="dvMvREgGdJZI3xQe4F_5" name="Page-1">
    <mxGraphModel dx="1422" dy="774" grid="1" gridSize="10" guides="1" tooltips="1" connect="1" arrows="1" fold="1" page="1" pageScale="1" pageWidth="850" pageHeight="1100" math="0" shadow="0">
      <root>
        <mxCell id="0" />
        <mxCell id="1" parent="0" />
        <mxCell id="u1FZ4RuDmFoGMgoN36QM-33" value="" style="endArrow=classic;html=1;exitX=1;exitY=0.75;exitDx=0;exitDy=0;" parent="1" source="u1FZ4RuDmFoGMgoN36QM-2" edge="1">
          <mxGeometry width="50" height="50" relative="1" as="geometry">
            <mxPoint x="600" y="140" as="sourcePoint" />
            <mxPoint x="680" y="140" as="targetPoint" />
          </mxGeometry>
        </mxCell>
        <mxCell id="u1FZ4RuDmFoGMgoN36QM-2" value="Гринч" style="rounded=0;whiteSpace=wrap;html=1;" parent="1" vertex="1">
          <mxGeometry x="480" y="70" width="120" height="40" as="geometry" />
        </mxCell>
        <mxCell id="u1FZ4RuDmFoGMgoN36QM-3" value="Сторона Санта-Клауса/Деда Мороза" style="rounded=0;whiteSpace=wrap;html=1;" parent="1" vertex="1">
          <mxGeometry x="280" y="70" width="120" height="40" as="geometry" />
        </mxCell>
        <mxCell id="u1FZ4RuDmFoGMgoN36QM-9" value="Игрок" style="rounded=0;whiteSpace=wrap;html=1;" parent="1" vertex="1">
          <mxGeometry x="400" y="10" width="80" height="40" as="geometry" />
        </mxCell>
        <mxCell id="u1FZ4RuDmFoGMgoN36QM-17" style="edgeStyle=orthogonalEdgeStyle;rounded=0;orthogonalLoop=1;jettySize=auto;html=1;entryX=0.5;entryY=0;entryDx=0;entryDy=0;" parent="1" source="u1FZ4RuDmFoGMgoN36QM-14" target="u1FZ4RuDmFoGMgoN36QM-16" edge="1">
          <mxGeometry relative="1" as="geometry" />
        </mxCell>
        <mxCell id="u1FZ4RuDmFoGMgoN36QM-14" value="1. Поиск 5 елочных игрушек&lt;br&gt;2. Возвращение к Санте для прохождения теста&lt;br&gt;3. Развешивание игрушек на елки" style="rounded=0;whiteSpace=wrap;html=1;" parent="1" vertex="1">
          <mxGeometry x="120" y="140" width="160" height="80" as="geometry" />
        </mxCell>
        <mxCell id="u1FZ4RuDmFoGMgoN36QM-19" style="edgeStyle=orthogonalEdgeStyle;rounded=0;orthogonalLoop=1;jettySize=auto;html=1;entryX=0.5;entryY=0;entryDx=0;entryDy=0;" parent="1" source="u1FZ4RuDmFoGMgoN36QM-16" target="u1FZ4RuDmFoGMgoN36QM-18" edge="1">
          <mxGeometry relative="1" as="geometry" />
        </mxCell>
        <mxCell id="u1FZ4RuDmFoGMgoN36QM-16" value="1. Фотографирование 10 фотозон (В случае необходимости их ремонт)&lt;br&gt;2. Отправка открыток на почте" style="rounded=0;whiteSpace=wrap;html=1;" parent="1" vertex="1">
          <mxGeometry x="120" y="240" width="160" height="80" as="geometry" />
        </mxCell>
        <mxCell id="u1FZ4RuDmFoGMgoN36QM-21" style="edgeStyle=orthogonalEdgeStyle;rounded=0;orthogonalLoop=1;jettySize=auto;html=1;" parent="1" source="u1FZ4RuDmFoGMgoN36QM-18" target="u1FZ4RuDmFoGMgoN36QM-20" edge="1">
          <mxGeometry relative="1" as="geometry" />
        </mxCell>
        <mxCell id="u1FZ4RuDmFoGMgoN36QM-18" value="1. Посещение базы по упаковыванию подарков&lt;br&gt;2. Упаковывание 30 подарков" style="rounded=0;whiteSpace=wrap;html=1;" parent="1" vertex="1">
          <mxGeometry x="110" y="340" width="180" height="80" as="geometry" />
        </mxCell>
        <mxCell id="u1FZ4RuDmFoGMgoN36QM-20" value="1. Покупка новогодних шаров&lt;br&gt;2. Развешивание их на домах" style="rounded=0;whiteSpace=wrap;html=1;" parent="1" vertex="1">
          <mxGeometry x="110" y="440" width="180" height="60" as="geometry" />
        </mxCell>
        <mxCell id="u1FZ4RuDmFoGMgoN36QM-38" style="edgeStyle=orthogonalEdgeStyle;rounded=0;orthogonalLoop=1;jettySize=auto;html=1;entryX=0.5;entryY=0;entryDx=0;entryDy=0;" parent="1" source="u1FZ4RuDmFoGMgoN36QM-22" target="u1FZ4RuDmFoGMgoN36QM-37" edge="1">
          <mxGeometry relative="1" as="geometry" />
        </mxCell>
        <mxCell id="u1FZ4RuDmFoGMgoN36QM-22" value="1. Украсть 5 елочных игрушек&lt;br&gt;2. Спрятать поочередно все елочные игрушки" style="rounded=0;whiteSpace=wrap;html=1;" parent="1" vertex="1">
          <mxGeometry x="600" y="140" width="160" height="80" as="geometry" />
        </mxCell>
        <mxCell id="u1FZ4RuDmFoGMgoN36QM-29" value="" style="endArrow=classic;html=1;entryX=0.5;entryY=0;entryDx=0;entryDy=0;exitX=0;exitY=0.75;exitDx=0;exitDy=0;" parent="1" source="u1FZ4RuDmFoGMgoN36QM-3" target="u1FZ4RuDmFoGMgoN36QM-14" edge="1">
          <mxGeometry width="50" height="50" relative="1" as="geometry">
            <mxPoint x="270" y="110" as="sourcePoint" />
            <mxPoint x="280" y="170" as="targetPoint" />
          </mxGeometry>
        </mxCell>
        <mxCell id="u1FZ4RuDmFoGMgoN36QM-31" value="" style="endArrow=classic;html=1;entryX=0.5;entryY=0;entryDx=0;entryDy=0;exitX=0;exitY=1;exitDx=0;exitDy=0;" parent="1" target="u1FZ4RuDmFoGMgoN36QM-3" edge="1">
          <mxGeometry width="50" height="50" relative="1" as="geometry">
            <mxPoint x="400" y="30" as="sourcePoint" />
            <mxPoint x="370" y="60" as="targetPoint" />
          </mxGeometry>
        </mxCell>
        <mxCell id="u1FZ4RuDmFoGMgoN36QM-36" value="" style="endArrow=classic;html=1;exitX=1;exitY=0.5;exitDx=0;exitDy=0;exitPerimeter=0;" parent="1" source="u1FZ4RuDmFoGMgoN36QM-9" edge="1">
          <mxGeometry width="50" height="50" relative="1" as="geometry">
            <mxPoint x="490" y="30" as="sourcePoint" />
            <mxPoint x="540" y="70" as="targetPoint" />
          </mxGeometry>
        </mxCell>
        <mxCell id="u1FZ4RuDmFoGMgoN36QM-40" value="" style="edgeStyle=orthogonalEdgeStyle;rounded=0;orthogonalLoop=1;jettySize=auto;html=1;" parent="1" source="u1FZ4RuDmFoGMgoN36QM-37" target="u1FZ4RuDmFoGMgoN36QM-39" edge="1">
          <mxGeometry relative="1" as="geometry" />
        </mxCell>
        <mxCell id="u1FZ4RuDmFoGMgoN36QM-37" value="1. Уничтожить 3 фотозоны&lt;br&gt;2. Отправиться на почту и забрать открытки&lt;br&gt;3. Сжечь их в Эдово" style="rounded=0;whiteSpace=wrap;html=1;" parent="1" vertex="1">
          <mxGeometry x="600" y="240" width="160" height="80" as="geometry" />
        </mxCell>
        <mxCell id="jkhiJZI2nxllzXPGr5OG-2" style="edgeStyle=orthogonalEdgeStyle;rounded=0;orthogonalLoop=1;jettySize=auto;html=1;" edge="1" parent="1" source="u1FZ4RuDmFoGMgoN36QM-39" target="jkhiJZI2nxllzXPGr5OG-1">
          <mxGeometry relative="1" as="geometry" />
        </mxCell>
        <mxCell id="u1FZ4RuDmFoGMgoN36QM-39" value="1. Посещение базы по упаковыванию подарков&lt;br&gt;2. Воровство подарков&lt;br&gt;3. Утилизация подарков" style="rounded=0;whiteSpace=wrap;html=1;" parent="1" vertex="1">
          <mxGeometry x="600" y="340" width="160" height="80" as="geometry" />
        </mxCell>
        <mxCell id="jkhiJZI2nxllzXPGr5OG-1" value="1. Покупка ножниц&lt;br&gt;2. Уничтожение новогодних шаров на домах" style="rounded=0;whiteSpace=wrap;html=1;" vertex="1" parent="1">
          <mxGeometry x="600" y="440" width="160" height="60" as="geometry" />
        </mxCell>
      </root>
    </mxGraphModel>
  </diagram>
</mxfile>
